<svg width="1440" height="740" xmlns="http://www.w3.org/2000/svg">

 <g>
  <title>background</title>
  <rect fill="none" id="canvas_background" height="402" width="582" y="-1" x="-1"/>
 </g>
 <g>
  <title>Layer 1</title>
  <g stroke="null" id="svg_1" transform="translate(287.6090393066406,85.72897338867188) scale(0.988970935344696) ">
   <rect stroke="null" fill=" rgb(160, 160, 160)" y="142.215666" x="-40.364236" height="62" width="87.887993" id="0_0" class="rect"/>
   <rect stroke="null" fill=" rgb(224, 224, 224)" y="144.215666" x="-38.990986" height="62" width="87.887993" id="0_1" class="rect"/>
   <rect stroke="null" fill=" rgb(160, 160, 160)" y="146.215666" x="-37.617736" height="62" width="87.887993" id="0_2" class="rect"/>
   <rect stroke="null" fill=" rgb(160, 160, 160)" y="130.215666" x="71.55563" height="60" width="86.514743" id="1_0" class="rect"/>
   <rect stroke="null" fill=" rgb(224, 224, 224)" y="132.215666" x="72.92888" height="60" width="86.514743" id="1_1" class="rect"/>
   <rect stroke="null" fill=" rgb(160, 160, 160)" y="134.215666" x="74.302129" height="60" width="86.514743" id="1_2" class="rect"/>
   <rect stroke="null" fill=" rgb(224, 224, 224)" y="136.215666" x="75.675379" height="60" width="86.514743" id="1_3" class="rect"/>
   <rect stroke="null" fill=" rgb(160, 160, 160)" y="138.215666" x="77.048629" height="60" width="86.514743" id="1_4" class="rect"/>
   <rect stroke="null" fill=" rgb(224, 224, 224)" y="140.215666" x="78.421879" height="60" width="86.514743" id="1_5" class="rect"/>
   <rect stroke="null" fill=" rgb(160, 160, 160)" y="142.215666" x="79.795129" height="60" width="86.514743" id="1_6" class="rect"/>
   <rect stroke="null" fill=" rgb(224, 224, 224)" y="144.215666" x="81.168379" height="60" width="86.514743" id="1_7" class="rect"/>
   <rect stroke="null" fill=" rgb(160, 160, 160)" y="146.215666" x="82.541629" height="60" width="86.514743" id="1_8" class="rect"/>
   <rect stroke="null" fill=" rgb(224, 224, 224)" y="148.215666" x="83.914879" height="60" width="86.514743" id="1_9" class="rect"/>
   <rect stroke="null" fill=" rgb(160, 160, 160)" y="150.215666" x="85.288129" height="60" width="86.514743" id="1_10" class="rect"/>
   <rect stroke="null" fill=" rgb(224, 224, 224)" y="152.215666" x="86.661378" height="60" width="86.514743" id="1_11" class="rect"/>
   <rect stroke="null" fill=" rgb(160, 160, 160)" y="154.215666" x="88.034628" height="60" width="86.514743" id="1_12" class="rect"/>
   <rect stroke="null" fill=" rgb(224, 224, 224)" y="156.215666" x="89.407878" height="60" width="86.514743" id="1_13" class="rect"/>
   <rect stroke="null" fill=" rgb(160, 160, 160)" y="158.215666" x="90.781128" height="60" width="86.514743" id="1_14" class="rect"/>
   <rect stroke="null" fill=" rgb(224, 224, 224)" y="160.215666" x="92.154378" height="60" width="86.514743" id="1_15" class="rect"/>
   <rect stroke="null" fill=" rgb(160, 160, 160)" y="163.715666" x="185.53537" height="45" width="43.257371" id="2_0" class="rect"/>
   <rect stroke="null" fill=" rgb(224, 224, 224)" y="165.715666" x="186.90862" height="45" width="43.257371" id="2_1" class="rect"/>
   <rect stroke="null" fill=" rgb(160, 160, 160)" y="167.715666" x="188.28187" height="45" width="43.257371" id="2_2" class="rect"/>
   <rect stroke="null" fill=" rgb(224, 224, 224)" y="169.715666" x="189.65512" height="45" width="43.257371" id="2_3" class="rect"/>
   <rect stroke="null" fill=" rgb(160, 160, 160)" y="171.715666" x="191.02837" height="45" width="43.257371" id="2_4" class="rect"/>
   <rect stroke="null" fill=" rgb(224, 224, 224)" y="173.715666" x="192.40162" height="45" width="43.257371" id="2_5" class="rect"/>
   <rect stroke="null" fill=" rgb(160, 160, 160)" y="175.715666" x="193.77487" height="45" width="43.257371" id="2_6" class="rect"/>
   <rect stroke="null" fill=" rgb(224, 224, 224)" y="177.715666" x="195.14812" height="45" width="43.257371" id="2_7" class="rect"/>
   <rect stroke="null" fill=" rgb(160, 160, 160)" y="179.715666" x="196.52137" height="45" width="43.257371" id="2_8" class="rect"/>
   <rect stroke="null" fill=" rgb(224, 224, 224)" y="181.715666" x="197.894619" height="45" width="43.257371" id="2_9" class="rect"/>
   <rect stroke="null" fill=" rgb(160, 160, 160)" y="183.715666" x="199.267869" height="45" width="43.257371" id="2_10" class="rect"/>
   <rect stroke="null" fill=" rgb(224, 224, 224)" y="185.715666" x="200.641119" height="45" width="43.257371" id="2_11" class="rect"/>
   <rect stroke="null" fill=" rgb(160, 160, 160)" y="187.715666" x="202.014369" height="45" width="43.257371" id="2_12" class="rect"/>
   <rect stroke="null" fill=" rgb(224, 224, 224)" y="189.715666" x="203.387619" height="45" width="43.257371" id="2_13" class="rect"/>
   <rect stroke="null" fill=" rgb(160, 160, 160)" y="146.715666" x="251.451365" height="43" width="41.884122" id="3_0" class="rect"/>
   <rect stroke="null" fill=" rgb(224, 224, 224)" y="148.715666" x="252.824615" height="43" width="41.884122" id="3_1" class="rect"/>
   <rect stroke="null" fill=" rgb(160, 160, 160)" y="150.715666" x="254.197865" height="43" width="41.884122" id="3_2" class="rect"/>
   <rect stroke="null" fill=" rgb(224, 224, 224)" y="152.715666" x="255.571115" height="43" width="41.884122" id="3_3" class="rect"/>
   <rect stroke="null" fill=" rgb(160, 160, 160)" y="154.715666" x="256.944365" height="43" width="41.884122" id="3_4" class="rect"/>
   <rect stroke="null" fill=" rgb(224, 224, 224)" y="156.715666" x="258.317614" height="43" width="41.884122" id="3_5" class="rect"/>
   <rect stroke="null" fill=" rgb(160, 160, 160)" y="158.715666" x="259.690864" height="43" width="41.884122" id="3_6" class="rect"/>
   <rect stroke="null" fill=" rgb(224, 224, 224)" y="160.715666" x="261.064114" height="43" width="41.884122" id="3_7" class="rect"/>
   <rect stroke="null" fill=" rgb(160, 160, 160)" y="162.715666" x="262.437364" height="43" width="41.884122" id="3_8" class="rect"/>
   <rect stroke="null" fill=" rgb(224, 224, 224)" y="164.715666" x="263.810614" height="43" width="41.884122" id="3_9" class="rect"/>
   <rect stroke="null" fill=" rgb(160, 160, 160)" y="166.715666" x="265.183864" height="43" width="41.884122" id="3_10" class="rect"/>
   <rect stroke="null" fill=" rgb(224, 224, 224)" y="168.715666" x="266.557114" height="43" width="41.884122" id="3_11" class="rect"/>
   <rect stroke="null" fill=" rgb(160, 160, 160)" y="170.715666" x="267.930364" height="43" width="41.884122" id="3_12" class="rect"/>
   <rect stroke="null" fill=" rgb(224, 224, 224)" y="172.715666" x="269.303614" height="43" width="41.884122" id="3_13" class="rect"/>
   <rect stroke="null" fill=" rgb(160, 160, 160)" y="174.715666" x="270.676863" height="43" width="41.884122" id="3_14" class="rect"/>
   <rect stroke="null" fill=" rgb(224, 224, 224)" y="176.715666" x="272.050113" height="43" width="41.884122" id="3_15" class="rect"/>
   <rect stroke="null" fill=" rgb(160, 160, 160)" y="178.715666" x="273.423363" height="43" width="41.884122" id="3_16" class="rect"/>
   <rect stroke="null" fill=" rgb(224, 224, 224)" y="180.715666" x="274.796613" height="43" width="41.884122" id="3_17" class="rect"/>
   <rect stroke="null" fill=" rgb(160, 160, 160)" y="182.715666" x="276.169863" height="43" width="41.884122" id="3_18" class="rect"/>
   <rect stroke="null" fill=" rgb(224, 224, 224)" y="184.715666" x="277.543113" height="43" width="41.884122" id="3_19" class="rect"/>
   <rect stroke="null" fill=" rgb(160, 160, 160)" y="186.715666" x="278.916363" height="43" width="41.884122" id="3_20" class="rect"/>
   <rect stroke="null" fill=" rgb(224, 224, 224)" y="188.715666" x="280.289613" height="43" width="41.884122" id="3_21" class="rect"/>
   <rect stroke="null" fill=" rgb(160, 160, 160)" y="190.715666" x="281.662863" height="43" width="41.884122" id="3_22" class="rect"/>
   <rect stroke="null" fill=" rgb(224, 224, 224)" y="192.715666" x="283.036112" height="43" width="41.884122" id="3_23" class="rect"/>
   <rect stroke="null" fill=" rgb(160, 160, 160)" y="194.715666" x="284.409362" height="43" width="41.884122" id="3_24" class="rect"/>
   <rect stroke="null" fill=" rgb(224, 224, 224)" y="196.715666" x="285.782612" height="43" width="41.884122" id="3_25" class="rect"/>
   <rect stroke="null" fill=" rgb(160, 160, 160)" y="198.715666" x="287.155862" height="43" width="41.884122" id="3_26" class="rect"/>
   <rect stroke="null" fill=" rgb(224, 224, 224)" y="200.715666" x="288.529112" height="43" width="41.884122" id="3_27" class="rect"/>
   <rect stroke="null" fill=" rgb(160, 160, 160)" y="202.715666" x="289.902362" height="43" width="41.884122" id="3_28" class="rect"/>
   <rect stroke="null" fill=" rgb(224, 224, 224)" y="204.715666" x="291.275612" height="43" width="41.884122" id="3_29" class="rect"/>
   <rect stroke="null" fill=" rgb(160, 160, 160)" y="206.715666" x="292.648862" height="43" width="41.884122" id="3_30" class="rect"/>
   <rect stroke="null" fill=" rgb(224, 224, 224)" y="208.715666" x="294.022112" height="43" width="41.884122" id="3_31" class="rect"/>
   <rect stroke="null" fill=" rgb(160, 160, 160)" y="159.215666" x="337.966108" height="27" width="24.718498" id="4_0" class="rect"/>
   <rect stroke="null" fill=" rgb(224, 224, 224)" y="161.215666" x="339.339358" height="27" width="24.718498" id="4_1" class="rect"/>
   <rect stroke="null" fill=" rgb(160, 160, 160)" y="163.215666" x="340.712608" height="27" width="24.718498" id="4_2" class="rect"/>
   <rect stroke="null" fill=" rgb(224, 224, 224)" y="165.215666" x="342.085858" height="27" width="24.718498" id="4_3" class="rect"/>
   <rect stroke="null" fill=" rgb(160, 160, 160)" y="167.215666" x="343.459108" height="27" width="24.718498" id="4_4" class="rect"/>
   <rect stroke="null" fill=" rgb(224, 224, 224)" y="169.215666" x="344.832357" height="27" width="24.718498" id="4_5" class="rect"/>
   <rect stroke="null" fill=" rgb(160, 160, 160)" y="171.215666" x="346.205607" height="27" width="24.718498" id="4_6" class="rect"/>
   <rect stroke="null" fill=" rgb(224, 224, 224)" y="173.215666" x="347.578857" height="27" width="24.718498" id="4_7" class="rect"/>
   <rect stroke="null" fill=" rgb(160, 160, 160)" y="175.215666" x="348.952107" height="27" width="24.718498" id="4_8" class="rect"/>
   <rect stroke="null" fill=" rgb(224, 224, 224)" y="177.215666" x="350.325357" height="27" width="24.718498" id="4_9" class="rect"/>
   <rect stroke="null" fill=" rgb(160, 160, 160)" y="179.215666" x="351.698607" height="27" width="24.718498" id="4_10" class="rect"/>
   <rect stroke="null" fill=" rgb(224, 224, 224)" y="181.215666" x="353.071857" height="27" width="24.718498" id="4_11" class="rect"/>
   <rect stroke="null" fill=" rgb(160, 160, 160)" y="183.215666" x="354.445107" height="27" width="24.718498" id="4_12" class="rect"/>
   <rect stroke="null" fill=" rgb(224, 224, 224)" y="185.215666" x="355.818357" height="27" width="24.718498" id="4_13" class="rect"/>
   <rect stroke="null" fill=" rgb(160, 160, 160)" y="187.215666" x="357.191606" height="27" width="24.718498" id="4_14" class="rect"/>
   <rect stroke="null" fill=" rgb(224, 224, 224)" y="189.215666" x="358.564856" height="27" width="24.718498" id="4_15" class="rect"/>
   <rect stroke="null" fill=" rgb(160, 160, 160)" y="191.215666" x="359.938106" height="27" width="24.718498" id="4_16" class="rect"/>
   <rect stroke="null" fill=" rgb(224, 224, 224)" y="193.215666" x="361.311356" height="27" width="24.718498" id="4_17" class="rect"/>
   <rect stroke="null" fill=" rgb(160, 160, 160)" y="195.215666" x="362.684606" height="27" width="24.718498" id="4_18" class="rect"/>
   <rect stroke="null" fill=" rgb(224, 224, 224)" y="197.215666" x="364.057856" height="27" width="24.718498" id="4_19" class="rect"/>
   <rect stroke="null" fill=" rgb(160, 160, 160)" y="199.215666" x="365.431106" height="27" width="24.718498" id="4_20" class="rect"/>
   <rect stroke="null" fill=" rgb(224, 224, 224)" y="201.215666" x="366.804356" height="27" width="24.718498" id="4_21" class="rect"/>
   <rect stroke="null" fill=" rgb(160, 160, 160)" y="203.215666" x="368.177606" height="27" width="24.718498" id="4_22" class="rect"/>
   <rect stroke="null" fill=" rgb(224, 224, 224)" y="205.215666" x="369.550855" height="27" width="24.718498" id="4_23" class="rect"/>
   <rect stroke="null" fill=" rgb(160, 160, 160)" y="207.215666" x="370.924105" height="27" width="24.718498" id="4_24" class="rect"/>
   <rect stroke="null" fill=" rgb(224, 224, 224)" y="209.215666" x="372.297355" height="27" width="24.718498" id="4_25" class="rect"/>
   <rect stroke="null" fill=" rgb(160, 160, 160)" y="211.215666" x="373.670605" height="27" width="24.718498" id="4_26" class="rect"/>
   <rect stroke="null" fill=" rgb(224, 224, 224)" y="213.215666" x="375.043855" height="27" width="24.718498" id="4_27" class="rect"/>
   <rect stroke="null" fill=" rgb(160, 160, 160)" y="215.215666" x="376.417105" height="27" width="24.718498" id="4_28" class="rect"/>
   <rect stroke="null" fill=" rgb(224, 224, 224)" y="217.215666" x="377.790355" height="27" width="24.718498" id="4_29" class="rect"/>
   <rect stroke="null" fill=" rgb(160, 160, 160)" y="219.215666" x="379.163605" height="27" width="24.718498" id="4_30" class="rect"/>
   <rect stroke="null" fill=" rgb(224, 224, 224)" y="221.215666" x="380.536855" height="27" width="24.718498" id="4_31" class="rect"/>
   <rect stroke="null" fill=" rgb(160, 160, 160)" y="180.215666" x="401.135603" height="20" width="19.225498" id="5_0" class="rect"/>
   <rect stroke="null" fill=" rgb(224, 224, 224)" y="182.215666" x="402.508853" height="20" width="19.225498" id="5_1" class="rect"/>
   <rect stroke="null" fill=" rgb(160, 160, 160)" y="184.215666" x="403.882103" height="20" width="19.225498" id="5_2" class="rect"/>
   <rect stroke="null" fill=" rgb(224, 224, 224)" y="186.215666" x="405.255353" height="20" width="19.225498" id="5_3" class="rect"/>
   <rect stroke="null" fill=" rgb(160, 160, 160)" y="188.215666" x="406.628602" height="20" width="19.225498" id="5_4" class="rect"/>
   <rect stroke="null" fill=" rgb(224, 224, 224)" y="190.215666" x="408.001852" height="20" width="19.225498" id="5_5" class="rect"/>
   <rect stroke="null" fill=" rgb(160, 160, 160)" y="192.215666" x="409.375102" height="20" width="19.225498" id="5_6" class="rect"/>
   <rect stroke="null" fill=" rgb(224, 224, 224)" y="194.215666" x="410.748352" height="20" width="19.225498" id="5_7" class="rect"/>
   <rect stroke="null" fill=" rgb(160, 160, 160)" y="196.215666" x="412.121602" height="20" width="19.225498" id="5_8" class="rect"/>
   <rect stroke="null" fill=" rgb(224, 224, 224)" y="198.215666" x="413.494852" height="20" width="19.225498" id="5_9" class="rect"/>
   <rect stroke="null" fill=" rgb(160, 160, 160)" y="200.215666" x="414.868102" height="20" width="19.225498" id="5_10" class="rect"/>
   <rect stroke="null" fill=" rgb(224, 224, 224)" y="202.215666" x="416.241352" height="20" width="19.225498" id="5_11" class="rect"/>
   <rect stroke="null" fill=" rgb(160, 160, 160)" y="204.215666" x="417.614602" height="20" width="19.225498" id="5_12" class="rect"/>
   <rect stroke="null" fill=" rgb(224, 224, 224)" y="206.215666" x="418.987851" height="20" width="19.225498" id="5_13" class="rect"/>
   <rect stroke="null" fill=" rgb(160, 160, 160)" y="208.215666" x="420.361101" height="20" width="19.225498" id="5_14" class="rect"/>
   <rect stroke="null" fill=" rgb(160, 160, 160)" y="138.215666" x="423.107601" height="12" width="9.612749" id="6_0" class="rect"/>
   <rect stroke="null" fill=" rgb(224, 224, 224)" y="140.215666" x="424.480851" height="12" width="9.612749" id="6_1" class="rect"/>
   <rect stroke="null" fill=" rgb(160, 160, 160)" y="142.215666" x="425.854101" height="12" width="9.612749" id="6_2" class="rect"/>
   <rect stroke="null" fill=" rgb(224, 224, 224)" y="144.215666" x="427.227351" height="12" width="9.612749" id="6_3" class="rect"/>
   <rect stroke="null" fill=" rgb(160, 160, 160)" y="146.215666" x="428.600601" height="12" width="9.612749" id="6_4" class="rect"/>
   <rect stroke="null" fill=" rgb(224, 224, 224)" y="148.215666" x="429.973851" height="12" width="9.612749" id="6_5" class="rect"/>
   <rect stroke="null" fill=" rgb(160, 160, 160)" y="150.215666" x="431.3471" height="12" width="9.612749" id="6_6" class="rect"/>
   <rect stroke="null" fill=" rgb(224, 224, 224)" y="152.215666" x="432.72035" height="12" width="9.612749" id="6_7" class="rect"/>
   <rect stroke="null" fill=" rgb(160, 160, 160)" y="154.215666" x="434.0936" height="12" width="9.612749" id="6_8" class="rect"/>
   <rect stroke="null" fill=" rgb(224, 224, 224)" y="156.215666" x="435.46685" height="12" width="9.612749" id="6_9" class="rect"/>
   <rect stroke="null" fill=" rgb(160, 160, 160)" y="158.215666" x="436.8401" height="12" width="9.612749" id="6_10" class="rect"/>
   <rect stroke="null" fill=" rgb(224, 224, 224)" y="160.215666" x="438.21335" height="12" width="9.612749" id="6_11" class="rect"/>
   <rect stroke="null" fill=" rgb(160, 160, 160)" y="162.215666" x="439.5866" height="12" width="9.612749" id="6_12" class="rect"/>
   <rect stroke="null" fill=" rgb(224, 224, 224)" y="164.215666" x="440.95985" height="12" width="9.612749" id="6_13" class="rect"/>
   <rect stroke="null" fill=" rgb(160, 160, 160)" y="166.215666" x="442.3331" height="12" width="9.612749" id="6_14" class="rect"/>
   <rect stroke="null" fill=" rgb(224, 224, 224)" y="168.215666" x="443.706349" height="12" width="9.612749" id="6_15" class="rect"/>
   <rect stroke="null" fill=" rgb(160, 160, 160)" y="170.215666" x="445.079599" height="12" width="9.612749" id="6_16" class="rect"/>
   <rect stroke="null" fill=" rgb(224, 224, 224)" y="172.215666" x="446.452849" height="12" width="9.612749" id="6_17" class="rect"/>
   <rect stroke="null" fill=" rgb(160, 160, 160)" y="174.215666" x="447.826099" height="12" width="9.612749" id="6_18" class="rect"/>
   <rect stroke="null" fill=" rgb(224, 224, 224)" y="176.215666" x="449.199349" height="12" width="9.612749" id="6_19" class="rect"/>
   <rect stroke="null" fill=" rgb(160, 160, 160)" y="178.215666" x="450.572599" height="12" width="9.612749" id="6_20" class="rect"/>
   <rect stroke="null" fill=" rgb(224, 224, 224)" y="180.215666" x="451.945849" height="12" width="9.612749" id="6_21" class="rect"/>
   <rect stroke="null" fill=" rgb(160, 160, 160)" y="182.215666" x="453.319099" height="12" width="9.612749" id="6_22" class="rect"/>
   <rect stroke="null" fill=" rgb(224, 224, 224)" y="184.215666" x="454.692349" height="12" width="9.612749" id="6_23" class="rect"/>
   <rect stroke="null" fill=" rgb(160, 160, 160)" y="186.215666" x="456.065598" height="12" width="9.612749" id="6_24" class="rect"/>
   <rect stroke="null" fill=" rgb(224, 224, 224)" y="188.215666" x="457.438848" height="12" width="9.612749" id="6_25" class="rect"/>
   <rect stroke="null" fill=" rgb(160, 160, 160)" y="190.215666" x="458.812098" height="12" width="9.612749" id="6_26" class="rect"/>
   <rect stroke="null" fill=" rgb(224, 224, 224)" y="192.215666" x="460.185348" height="12" width="9.612749" id="6_27" class="rect"/>
   <rect stroke="null" fill=" rgb(160, 160, 160)" y="194.215666" x="461.558598" height="12" width="9.612749" id="6_28" class="rect"/>
   <rect stroke="null" fill=" rgb(224, 224, 224)" y="196.215666" x="462.931848" height="12" width="9.612749" id="6_29" class="rect"/>
   <rect stroke="null" fill=" rgb(160, 160, 160)" y="198.215666" x="464.305098" height="12" width="9.612749" id="6_30" class="rect"/>
   <rect stroke="null" fill=" rgb(224, 224, 224)" y="200.215666" x="465.678348" height="12" width="9.612749" id="6_31" class="rect"/>
   <rect stroke="null" fill=" rgb(160, 160, 160)" y="202.215666" x="467.051598" height="12" width="9.612749" id="6_32" class="rect"/>
   <rect stroke="null" fill=" rgb(224, 224, 224)" y="204.215666" x="468.424847" height="12" width="9.612749" id="6_33" class="rect"/>
   <rect stroke="null" fill=" rgb(160, 160, 160)" y="206.215666" x="469.798097" height="12" width="9.612749" id="6_34" class="rect"/>
   <rect stroke="null" fill=" rgb(224, 224, 224)" y="208.215666" x="471.171347" height="12" width="9.612749" id="6_35" class="rect"/>
   <rect stroke="null" fill=" rgb(160, 160, 160)" y="210.215666" x="472.544597" height="12" width="9.612749" id="6_36" class="rect"/>
   <rect stroke="null" fill=" rgb(224, 224, 224)" y="212.215666" x="473.917847" height="12" width="9.612749" id="6_37" class="rect"/>
   <rect stroke="null" fill=" rgb(160, 160, 160)" y="214.215666" x="475.291097" height="12" width="9.612749" id="6_38" class="rect"/>
   <rect stroke="null" fill=" rgb(224, 224, 224)" y="216.215666" x="476.664347" height="12" width="9.612749" id="6_39" class="rect"/>
   <rect stroke="null" fill=" rgb(160, 160, 160)" y="218.215666" x="478.037597" height="12" width="9.612749" id="6_40" class="rect"/>
   <rect stroke="null" fill=" rgb(224, 224, 224)" y="220.215666" x="479.410847" height="12" width="9.612749" id="6_41" class="rect"/>
   <rect stroke="null" fill=" rgb(160, 160, 160)" y="222.215666" x="480.784096" height="12" width="9.612749" id="6_42" class="rect"/>
   <rect stroke="null" fill=" rgb(224, 224, 224)" y="224.215666" x="482.157346" height="12" width="9.612749" id="6_43" class="rect"/>
   <rect stroke="null" fill=" rgb(160, 160, 160)" y="226.215666" x="483.530596" height="12" width="9.612749" id="6_44" class="rect"/>
   <rect stroke="null" fill=" rgb(224, 224, 224)" y="228.215666" x="484.903846" height="12" width="9.612749" id="6_45" class="rect"/>
   <rect stroke="null" fill=" rgb(160, 160, 160)" y="230.215666" x="486.277096" height="12" width="9.612749" id="6_46" class="rect"/>
   <rect stroke="null" fill=" rgb(224, 224, 224)" y="232.215666" x="487.650346" height="12" width="9.612749" id="6_47" class="rect"/>
   <rect stroke="null" fill=" rgb(160, 160, 160)" y="234.215666" x="489.023596" height="12" width="9.612749" id="6_48" class="rect"/>
   <rect stroke="null" fill=" rgb(224, 224, 224)" y="236.215666" x="490.396846" height="12" width="9.612749" id="6_49" class="rect"/>
   <rect stroke="null" fill=" rgb(160, 160, 160)" y="238.215666" x="491.770096" height="12" width="9.612749" id="6_50" class="rect"/>
   <rect stroke="null" fill=" rgb(224, 224, 224)" y="240.215666" x="493.143345" height="12" width="9.612749" id="6_51" class="rect"/>
   <rect stroke="null" fill=" rgb(160, 160, 160)" y="242.215666" x="494.516595" height="12" width="9.612749" id="6_52" class="rect"/>
   <rect stroke="null" fill=" rgb(224, 224, 224)" y="244.215666" x="495.889845" height="12" width="9.612749" id="6_53" class="rect"/>
   <rect stroke="null" fill=" rgb(160, 160, 160)" y="246.215666" x="497.263095" height="12" width="9.612749" id="6_54" class="rect"/>
   <rect stroke="null" fill=" rgb(224, 224, 224)" y="248.215666" x="498.636345" height="12" width="9.612749" id="6_55" class="rect"/>
   <rect stroke="null" fill=" rgb(160, 160, 160)" y="250.215666" x="500.009595" height="12" width="9.612749" id="6_56" class="rect"/>
   <rect stroke="null" fill=" rgb(224, 224, 224)" y="252.215666" x="501.382845" height="12" width="9.612749" id="6_57" class="rect"/>
   <rect stroke="null" fill=" rgb(160, 160, 160)" y="254.215666" x="502.756095" height="12" width="9.612749" id="6_58" class="rect"/>
   <rect stroke="null" fill=" rgb(224, 224, 224)" y="256.215666" x="504.129345" height="12" width="9.612749" id="6_59" class="rect"/>
   <rect stroke="null" fill=" rgb(160, 160, 160)" y="258.215666" x="505.502594" height="12" width="9.612749" id="6_60" class="rect"/>
   <rect stroke="null" fill=" rgb(224, 224, 224)" y="260.215666" x="506.875844" height="12" width="9.612749" id="6_61" class="rect"/>
   <rect stroke="null" fill=" rgb(160, 160, 160)" y="262.215666" x="508.249094" height="12" width="9.612749" id="6_62" class="rect"/>
   <rect stroke="null" fill=" rgb(224, 224, 224)" y="264.215666" x="509.622344" height="12" width="9.612749" id="6_63" class="rect"/>
   <rect stroke="null" fill-opacity="0" y="153.10773" x="-20.852385" height="3" width="2.059875" id="conv_0" class="conv"/>
   <rect stroke="null" fill-opacity="0" y="205.354954" x="138.149818" height="2" width="1.37325" id="conv_1" class="conv"/>
   <rect stroke="null" fill-opacity="0" y="207.038476" x="240.260036" height="3" width="2.059875" id="conv_2" class="conv"/>
   <rect stroke="null" fill-opacity="0" y="230.720052" x="325.773554" height="2" width="1.37325" id="conv_3" class="conv"/>
   <rect stroke="null" fill-opacity="0" y="226.434627" x="395.349532" height="3" width="2.059875" id="conv_4" class="conv"/>
   <rect stroke="null" fill-opacity="0" y="221.156709" x="429.70204" height="2" width="1.37325" id="conv_5" class="conv"/>
   <line stroke=" black" y2="167.224545" x2="109.053852" y1="156.10773" x1="-18.79251" id="conv_0" class="link"/>
   <line stroke=" black" y2="167.224545" x2="109.053852" y1="153.10773" x1="-18.79251" id="conv_0" class="link"/>
   <line stroke=" black" y2="224.737528" x2="226.75627" y1="207.354954" x1="139.523068" id="conv_1" class="link"/>
   <line stroke=" black" y2="224.737528" x2="226.75627" y1="205.354954" x1="139.523068" id="conv_1" class="link"/>
   <line stroke=" black" y2="226.450924" x2="331.509069" y1="210.038476" x1="242.319911" id="conv_2" class="link"/>
   <line stroke=" black" y2="226.450924" x2="331.509069" y1="207.038476" x1="242.319911" id="conv_2" class="link"/>
   <line stroke=" black" y2="235.706359" x2="399.910616" y1="232.720052" x1="327.146804" id="conv_3" class="link"/>
   <line stroke=" black" y2="235.706359" x2="399.910616" y1="230.720052" x1="327.146804" id="conv_3" class="link"/>
   <line stroke=" black" y2="212.5648" x2="432.929434" y1="229.434627" x1="397.409407" id="conv_4" class="link"/>
   <line stroke=" black" y2="212.5648" x2="432.929434" y1="226.434627" x1="397.409407" id="conv_4" class="link"/>
   <line stroke=" black" y2="272.843028" x2="514.65208" y1="223.156709" x1="431.07529" id="conv_5" class="link"/>
   <line stroke=" black" y2="272.843028" x2="514.65208" y1="221.156709" x1="431.07529" id="conv_5" class="link"/>
   <polygon stroke="null" fill=" rgb(224, 224, 224)" points="476.6643676757813,137.50497436523438 483.53060913085943,137.50497436523438 580.6340942382812,278.92633056640625 573.767822265625,278.92633056640625 " id="fc_0" class="poly"/>
   <polygon stroke="null" fill=" rgb(224, 224, 224)" points="582.00732421875,190.53799438476562 588.8735961914062,190.53799438476562 613.1494140625,225.89334106445312 606.283203125,225.89334106445312 " id="fc_1" class="poly"/>
   <polygon stroke="null" fill=" rgb(224, 224, 224)" points="614.522705078125,204.68014526367188 621.388916015625,204.68014526367188 626.2440795898438,211.75119018554688 619.3778686523438,211.75119018554688 " id="fc_2" class="poly"/>
   <polygon stroke="null" fill=" rgb(224, 224, 224)" points="627.6173706054688,208.21566772460938 634.4835815429688,208.21566772460938 634.4835815429688,208.21566772460938 627.6173706054688,208.21566772460938 " id="fc_3" class="poly"/>
   <line stroke=" black" y2="278.926344" x2="573.767778" y1="278.215666" x1="519.235093" id="fc_0" class="line"/>
   <line stroke=" black" y2="137.504987" x2="476.664347" y1="138.215666" x1="432.72035" id="fc_0" class="line"/>
   <line stroke=" black" y2="225.893335" x2="606.283135" y1="278.926344" x1="580.634027" id="fc_1" class="line"/>
   <line stroke=" black" y2="190.537996" x2="582.007277" y1="137.504987" x1="483.530596" id="fc_1" class="line"/>
   <line stroke=" black" y2="211.751199" x2="619.377806" y1="225.893335" x1="613.149384" id="fc_2" class="line"/>
   <line stroke=" black" y2="204.680132" x2="614.522634" y1="190.537996" x1="588.873526" id="fc_2" class="line"/>
   <line stroke=" black" y2="208.215666" x2="627.617305" y1="211.751199" x1="626.244055" id="fc_3" class="line"/>
   <line stroke=" black" y2="208.215666" x2="627.617305" y1="204.680132" x1="621.388883" id="fc_3" class="line"/>
   <text transform="matrix(0.6866249442100525,0,0,1,-12.649144371326202,0) " stroke="null" id="svg_2" font-size=" 16px" y="298.215666" x="131.135763" font-family="sans-serif" class="text"/>
   <text transform="matrix(0.6866249442100525,0,0,1,-12.649144371326202,0) " stroke="null" id="svg_3" font-size=" 16px" y="298.215666" x="290.885763" font-family="sans-serif" class="text"/>
   <text transform="matrix(0.6866249442100525,0,0,1,-12.649144371326202,0) " stroke="null" id="svg_4" font-size=" 16px" y="298.215666" x="396.885763" font-family="sans-serif" class="text"/>
   <text transform="matrix(0.6866249442100525,0,0,1,-12.649144371326202,0) " stroke="null" id="svg_5" font-size=" 16px" y="298.215666" x="518.635763" font-family="sans-serif" class="text"/>
   <text transform="matrix(0.6866249442100525,0,0,1,-12.649144371326202,0) " stroke="null" id="svg_6" font-size=" 16px" y="298.215666" x="604.635763" font-family="sans-serif" class="text"/>
   <text transform="matrix(0.6866249442100525,0,0,1,-12.649144371326202,0) " stroke="null" id="svg_7" font-size=" 16px" y="298.215666" x="666.635763" font-family="sans-serif" class="text"/>
   <text transform="matrix(0.6866249442100525,0,0,1,-12.649144371326202,0) " stroke="null" id="svg_8" font-size=" 16px" y="298.215666" x="763.991102" font-family="sans-serif" class="text"/>
   <text transform="matrix(0.6866249442100525,0,0,1,-12.649144371326202,0) " stroke="null" id="svg_9" font-size=" 16px" y="127.215666" x="-40.364237" font-family="sans-serif" class="info"/>
   <text transform="matrix(0.6866249442100525,0,0,1,-12.649144371326202,0) " stroke="null" id="svg_10" font-size=" 16px" y="115.215666" x="122.635763" font-family="sans-serif" class="info"/>
   <text transform="matrix(0.6866249442100525,0,0,1,-12.649144371326202,0) " stroke="null" id="svg_11" font-size=" 16px" y="148.715666" x="288.635763" font-family="sans-serif" class="info"/>
   <text transform="matrix(0.6866249442100525,0,0,1,-12.649144371326202,0) " stroke="null" id="svg_12" font-size=" 16px" y="131.715666" x="384.635763" font-family="sans-serif" class="info"/>
   <text transform="matrix(0.6866249442100525,0,0,1,-12.649144371326202,0) " stroke="null" id="svg_13" font-size=" 16px" y="144.215666" x="510.635763" font-family="sans-serif" class="info"/>
   <text transform="matrix(0.6866249442100525,0,0,1,-12.649144371326202,0) " stroke="null" id="svg_14" font-size=" 16px" y="165.215666" x="602.635763" font-family="sans-serif" class="info"/>
   <text transform="matrix(0.6866249442100525,0,0,1,-12.649144371326202,0) " stroke="null" id="svg_15" font-size=" 16px" y="123.215666" x="634.635763" font-family="sans-serif" class="info"/>
   <text transform="matrix(0.6866249442100525,0,0,1,-12.649144371326202,0) " stroke="null" id="svg_16" font-size=" 16px" y="122.504987" x="712.635763" font-family="sans-serif" class="info"/>
   <text transform="matrix(0.6866249442100525,0,0,1,-12.649144371326202,0) " stroke="null" id="svg_17" font-size=" 16px" y="175.537996" x="866.057119" font-family="sans-serif" class="info"/>
   <text transform="matrix(0.6866249442100525,0,0,1,-12.649144371326202,0) " stroke="null" id="svg_18" font-size=" 16px" y="189.680132" x="913.412458" font-family="sans-serif" class="info"/>
   <text transform="matrix(0.6866249442100525,0,0,1,-12.649144371326202,0) " stroke="null" id="svg_19" font-size=" 16px" y="193.215666" x="932.483526" font-family="sans-serif" class="info"/>
  </g>
  <text stroke="#000" transform="matrix(5.199199989078211,0,0,7.797245219963473,-1536.5440717319366,-2183.252885506766) " xml:space="preserve" text-anchor="start" font-family="'Times New Roman', Times, serif" font-size="2" id="svg_26" y="325.489432" x="379.187049" stroke-width="0" fill="#000000">2x2 max pool</text>
  <text style="cursor: move;" stroke="#000" transform="matrix(5.640935897827144,0,0,6.283741190388355,-1712.2234745025635,-1678.370473759316) " xml:space="preserve" text-anchor="start" font-family="'Times New Roman', Times, serif" font-size="3" id="svg_31" y="298.399906" x="352.817956" stroke-width="0" fill="#000000">Input</text>
  <text stroke="#000" transform="matrix(6.448866082695298,0,0,8.500354512302271,-2058.143364901158,-2337.6487664163583) " xml:space="preserve" text-anchor="start" font-family="'Times New Roman', Times, serif" font-size="2" id="svg_32" y="299.673033" x="428.691891" stroke-width="0" fill="#000000">flatten</text>
  <text stroke="#000" transform="matrix(5.640935897827144,0,0,6.283741190388355,-1712.2234745025635,-1678.370473759316) " xml:space="preserve" text-anchor="start" font-family="'Times New Roman', Times, serif" font-size="2" id="svg_36" y="310.494612" x="460.424214" stroke-width="0" fill="#000000">FCL</text>
  <text stroke="#000" transform="matrix(5.640935897827144,0,0,6.283741190388355,-1712.2234745025635,-1678.370473759316) " xml:space="preserve" text-anchor="start" font-family="'Times New Roman', Times, serif" font-size="3" id="svg_38" y="314.791415" x="466.628858" stroke-width="0" fill="#000000">output</text>
  <text stroke="#000" transform="matrix(5.36237966114818,0,0,7.797245219963473,-1646.841229461245,-2174.2528855067662) " xml:space="preserve" text-anchor="start" font-family="'Times New Roman', Times, serif" font-size="2" id="svg_39" y="330.234698" x="448.656833" stroke-width="0" fill="#000000">2x2 max pool</text>
  <text stroke="#000" transform="matrix(5.280275831957166,0,0,7.797245219963473,-1615.4810889875796,-2187.252885506766) " xml:space="preserve" text-anchor="start" font-family="'Times New Roman', Times, serif" font-size="2" id="svg_40" y="326.515435" x="425.065019" stroke-width="0" fill="#000000">2x2 max pool</text>
  <text stroke="#000" transform="matrix(6.2986112775609655,0,0,7.797245219963473,-1937.8269409332934,-2187.252885506766) " xml:space="preserve" text-anchor="start" font-family="'Times New Roman', Times, serif" font-size="2" id="svg_41" y="323.180924" x="363.47186" stroke-width="0" fill="#000000">3x3 conv</text>
  <text stroke="#000" transform="matrix(6.062458539079998,0,0,7.797245219963473,-1895.7929170304942,-2187.252885506766) " xml:space="preserve" text-anchor="start" font-family="'Times New Roman', Times, serif" font-size="2" id="svg_42" y="328.567442" x="399.706153" stroke-width="0" fill="#000000">3x3 conv</text>
  <text stroke="#000" transform="matrix(6.637053732773969,0,0,7.797245219963473,-2178.592618113043,-2187.252885506766) " xml:space="preserve" text-anchor="start" font-family="'Times New Roman', Times, serif" font-size="2" id="svg_43" y="329.336945" x="433.533733" stroke-width="0" fill="#000000">3x3 conv</text>
  <text stroke="#000" transform="matrix(5.640935897827144,0,0,6.283741190388355,-1712.2234745025635,-1678.370473759316) " xml:space="preserve" text-anchor="start" font-family="'Times New Roman', Times, serif" font-size="2" id="svg_44" y="308.744062" x="455.105947" stroke-width="0" fill="#000000">FCL</text>
  <text stroke="#000" transform="matrix(5.640935897827144,0,0,6.283741190388355,-1712.2234745025635,-1678.370473759316) " xml:space="preserve" text-anchor="start" font-family="'Times New Roman', Times, serif" font-size="2" id="svg_45" y="301.105301" x="438.619321" stroke-width="0" fill="#000000">FCL</text>
  <polyline stroke-linecap="round" id="svg_46" points="417,266 416,265 " fill-opacity="null" stroke-opacity="null" stroke-width="0" stroke="#000" fill="none"/>
  <polyline stroke-linecap="round" id="svg_48" points="413,375 414,375 " fill-opacity="null" stroke-opacity="null" stroke-width="0" stroke="#000" fill="none"/>
 </g>
</svg>